<?xml version="1.0" standalone="no"?>
<!DOCTYPE svg PUBLIC "-//W3C//DTD SVG 20010904//EN"
 "http://www.w3.org/TR/2001/REC-SVG-20010904/DTD/svg10.dtd">
<svg version="1.0" xmlns="http://www.w3.org/2000/svg"
 width="122.000000pt" height="122.000000pt" viewBox="0 0 122.000000 122.000000"
 preserveAspectRatio="xMidYMid meet">

<g transform="translate(0.000000,122.000000) scale(0.100000,-0.100000)"
fill="#000000" stroke="none">
<path d="M562 934 c-15 -28 -24 -147 -11 -138 6 3 8 12 5 20 -3 7 -1 16 4 19
6 4 10 -5 10 -19 0 -14 -5 -28 -10 -31 -6 -4 -8 -10 -5 -15 3 -5 14 -2 25 7
13 12 16 21 10 33 -6 12 -4 16 13 17 16 2 18 0 8 -6 -10 -7 -11 -13 -2 -27 9
-17 10 -17 11 -1 0 9 5 17 10 17 6 0 10 14 10 30 0 17 5 30 11 30 5 0 7 -4 4
-10 -3 -5 -1 -10 6 -10 8 0 8 -4 -1 -15 -11 -13 -8 -15 14 -15 19 0 29 7 36
25 5 14 15 25 22 25 9 0 9 -3 0 -12 -14 -14 -16 -42 -2 -33 6 3 7 -1 4 -9 -5
-13 -1 -14 25 -5 17 6 29 14 27 17 -2 4 11 7 28 7 l33 0 -16 -32 c-17 -35 -31
-43 -31 -18 0 20 -19 19 -27 -1 -4 -10 1 -22 10 -29 10 -7 17 -22 17 -34 0
-29 24 -22 28 8 2 15 0 21 -7 17 -6 -4 -11 -2 -11 3 0 6 7 11 16 11 9 0 12 5
8 11 -4 7 -1 10 7 7 8 -3 13 -12 11 -20 -1 -9 5 -21 13 -28 9 -8 15 -8 15 -2
0 6 -5 14 -11 18 -8 5 -8 9 1 14 7 4 9 13 6 19 -4 6 -11 9 -16 6 -5 -3 -8 4
-7 15 1 11 8 20 17 21 11 0 11 2 2 6 -10 4 -10 8 0 20 11 14 10 15 -8 9 -18
-5 -24 -1 -32 24 -11 30 -24 41 -21 18 3 -25 -1 -35 -16 -35 -8 0 -16 6 -19
14 -3 8 2 13 12 13 15 0 15 2 2 10 -11 7 -12 12 -3 18 8 5 0 11 -22 18 -31 10
-33 9 -24 -7 6 -12 5 -20 -1 -24 -6 -4 -7 -11 -4 -17 5 -7 2 -9 -8 -5 -9 3
-20 2 -25 -1 -5 -4 2 3 15 16 18 17 20 22 7 22 -9 0 -14 4 -10 9 3 5 1 12 -4
15 -10 7 -57 -37 -81 -77 -14 -22 -19 -25 -23 -12 -4 9 2 24 13 35 11 11 16
20 12 20 -4 0 -13 -5 -20 -12 -17 -17 -16 10 1 32 6 9 1 5 -12 -10 -14 -14
-22 -18 -19 -9 3 9 3 22 -2 29 -6 10 -10 8 -18 -6z m18 -74 c0 -5 -2 -10 -4
-10 -3 0 -8 5 -11 10 -3 6 -1 10 4 10 6 0 11 -4 11 -10z m247 -12 c-3 -8 -6
-5 -6 6 -1 11 2 17 5 13 3 -3 4 -12 1 -19z"/>
<path d="M486 911 c-4 -5 -2 -12 3 -15 5 -4 12 -2 15 3 4 5 2 12 -3 15 -5 4
-12 2 -15 -3z"/>
<path d="M451 892 c-6 -11 -11 -49 -11 -84 1 -60 1 -62 15 -38 8 14 14 19 15
12 0 -8 5 -10 13 -6 9 6 9 4 1 -7 -15 -20 -24 -57 -13 -61 4 -2 4 -10 -1 -18
-8 -13 -11 -12 -24 5 -12 17 -12 21 3 32 14 10 13 12 -7 10 -21 -1 -23 -5 -18
-32 4 -16 8 -41 10 -54 3 -13 10 -29 17 -35 9 -8 11 -6 7 9 -3 11 1 26 9 33 7
7 13 9 14 5 0 -4 5 5 10 21 5 20 4 34 -3 43 -7 9 -7 17 0 26 6 6 13 26 15 42
3 17 4 7 3 -22 -2 -28 1 -58 5 -65 6 -9 9 -7 9 8 0 12 8 25 17 28 10 4 13 10
8 14 -10 7 -15 26 -18 64 -1 12 -8 16 -24 14 -20 -4 -21 -2 -12 22 9 26 9 26
-7 7 l-16 -20 6 20 c3 11 2 26 -3 34 -7 11 -11 10 -20 -7z"/>
<path d="M520 889 c0 -5 5 -7 10 -4 6 3 10 8 10 11 0 2 -4 4 -10 4 -5 0 -10
-5 -10 -11z"/>
<path d="M505 859 c-11 -17 -2 -18 19 -3 17 12 17 14 4 14 -9 0 -20 -5 -23
-11z"/>
<path d="M407 815 c3 -8 9 -12 14 -9 12 7 11 11 -5 17 -10 4 -13 1 -9 -8z"/>
<path d="M931 814 c0 -11 3 -14 6 -6 3 7 2 16 -1 19 -3 4 -6 -2 -5 -13z"/>
<path d="M706 811 c-4 -7 -5 -15 -2 -18 9 -9 19 4 14 18 -4 11 -6 11 -12 0z"/>
<path d="M327 803 c-13 -13 -7 -61 16 -123 23 -60 37 -64 37 -9 0 24 20 25 21
2 3 -50 -1 -87 -10 -96 -10 -10 -16 2 -12 26 1 5 -2 6 -7 3 -14 -8 -43 34 -37
53 3 12 -1 17 -15 18 -13 1 -20 -5 -20 -15 -1 -13 -5 -10 -16 8 -15 25 -15 25
-10 -12 3 -21 1 -38 -5 -38 -5 0 -9 -5 -9 -11 0 -5 5 -7 11 -3 6 3 15 0 20 -7
12 -19 11 -52 -1 -44 -5 3 -6 13 -3 23 5 13 3 14 -7 5 -10 -9 -9 -16 4 -34
l16 -23 11 32 c13 39 21 40 48 5 16 -22 23 -25 30 -14 6 9 11 10 15 2 4 -6 12
-11 17 -11 6 0 7 5 4 11 -11 16 -13 59 -4 59 5 0 9 7 9 15 0 8 -4 15 -9 15 -4
0 -7 10 -7 23 1 12 -2 28 -7 35 -6 7 -7 15 -3 19 3 3 -2 15 -11 25 -13 14 -14
21 -5 30 9 9 12 7 12 -8 0 -14 2 -16 9 -5 6 9 3 20 -7 32 -18 21 -32 25 -32 8
0 -5 5 -7 10 -4 6 3 10 1 10 -4 0 -10 -15 -15 -23 -8 -2 1 -11 -4 -19 -11 -13
-10 -15 -9 -10 13 4 25 1 31 -11 18z m38 -43 c3 -5 1 -10 -4 -10 -6 0 -11 5
-11 10 0 6 2 10 4 10 3 0 8 -4 11 -10z"/>
<path d="M677 796 c-4 -11 -10 -16 -14 -12 -3 3 -13 -4 -21 -15 -12 -17 -16
-18 -23 -8 -7 11 -9 9 -10 -6 -1 -11 -3 -27 -4 -35 -2 -25 23 -68 45 -75 17
-5 20 -15 20 -56 0 -46 -1 -49 -16 -35 -8 9 -20 16 -25 16 -5 0 -18 20 -29 44
-10 24 -23 47 -29 50 -7 5 -4 14 9 28 11 12 16 26 13 31 -4 6 -12 2 -21 -11
-8 -12 -21 -22 -29 -22 -10 0 -11 -5 -4 -18 8 -15 5 -18 -16 -20 -35 -3 -43
-12 -12 -12 22 -1 21 -3 -11 -20 -21 -12 -28 -19 -18 -20 12 0 15 -5 11 -16
-3 -9 -9 -11 -12 -6 -3 5 -14 -1 -24 -14 -18 -24 -18 -24 7 -24 13 0 31 -7 40
-15 21 -22 62 -35 109 -36 37 0 39 -1 18 -10 -41 -16 -110 -19 -118 -5 -10 16
-43 28 -43 16 0 -17 -29 1 -36 23 -6 19 -8 18 -38 -16 -32 -36 -76 -58 -76
-37 0 6 5 8 12 4 8 -5 9 -2 5 9 -7 20 8 23 17 5 3 -7 4 -1 2 15 -2 15 1 27 5
27 5 0 9 -4 9 -10 0 -5 5 -10 10 -10 16 0 -6 36 -26 44 -26 10 -40 -11 -43
-64 -1 -13 -2 -13 -11 0 -8 12 -10 9 -10 -12 0 -15 4 -29 9 -33 15 -9 91 25
102 46 12 22 29 25 29 5 0 -8 12 -24 27 -36 20 -16 28 -18 34 -8 7 10 11 10
21 0 14 -14 32 -16 23 -2 -3 6 3 10 14 10 12 0 21 -4 21 -9 0 -5 9 -7 21 -4
16 5 18 8 7 15 -9 7 -5 8 12 4 14 -3 33 -6 43 -6 17 0 17 -2 3 -22 -9 -12 -15
-32 -15 -43 1 -17 2 -17 6 -2 2 9 8 17 13 17 13 0 18 48 6 62 -6 7 -7 9 -2 5
5 -4 15 -2 23 5 22 18 28 0 10 -31 -24 -41 -21 -63 3 -26 11 17 20 24 20 15 1
-12 4 -11 15 4 15 20 37 14 29 -8 -3 -8 -1 -17 4 -20 5 -3 12 3 15 14 3 11 1
20 -5 20 -6 0 -7 11 -4 26 5 17 3 23 -4 19 -5 -3 -10 2 -11 12 0 16 -1 16 -8
-2 -5 -11 -7 -23 -5 -26 2 -4 -3 -9 -11 -13 -9 -3 -15 0 -15 9 0 8 -8 19 -17
25 -16 10 -16 11 -1 6 9 -2 22 2 28 10 7 8 9 14 5 14 -4 0 3 9 16 21 13 11 17
18 9 14 -8 -4 -5 3 8 14 13 11 21 25 18 30 -3 5 1 11 9 15 8 3 15 11 15 17 0
8 -4 8 -15 -1 -17 -14 -19 -10 -30 54 -4 27 -18 50 -39 70 -18 17 -35 38 -38
45 -3 12 -6 11 -11 -3z m-32 -56 c-3 -5 -12 -10 -18 -10 -7 0 -6 4 3 10 19 12
23 12 15 0z m35 -21 c0 -5 4 -8 9 -5 5 3 11 -1 15 -9 7 -20 -8 -19 -28 1 -19
18 -20 24 -6 24 6 0 10 -5 10 -11z m60 -100 c0 -5 -9 -9 -19 -9 -14 0 -18 5
-14 20 4 16 8 18 19 9 8 -6 14 -15 14 -20z m-200 -29 c0 13 1 13 10 0 12 -19
6 -23 -19 -15 -12 3 -18 11 -15 17 4 6 10 5 15 -3 7 -11 9 -11 9 1z m88 -42
c19 -19 14 -28 -13 -28 -14 0 -25 2 -25 4 0 2 -3 11 -6 20 -7 19 26 22 44 4z
m-313 -98 c3 -5 1 -10 -4 -10 -6 0 -11 5 -11 10 0 6 2 10 4 10 3 0 8 -4 11
-10z"/>
<path d="M891 754 c0 -11 3 -14 6 -6 3 7 2 16 -1 19 -3 4 -6 -2 -5 -13z"/>
<path d="M940 761 c0 -5 5 -13 10 -16 6 -3 10 -2 10 4 0 5 -4 13 -10 16 -5 3
-10 2 -10 -4z"/>
<path d="M920 733 c0 -5 7 -18 15 -29 8 -10 14 -26 14 -34 0 -11 -3 -10 -14 4
-14 19 -15 19 -15 -8 0 -21 4 -27 15 -22 19 7 19 1 -2 -32 l-18 -27 25 17 c14
10 40 25 58 33 36 16 38 38 4 43 -12 2 -25 15 -31 30 -8 22 -10 23 -11 7 -1
-19 -2 -19 -20 4 -11 13 -20 19 -20 14z m90 -73 c0 -5 -7 -7 -15 -4 -8 4 -15
8 -15 10 0 2 7 4 15 4 8 0 15 -4 15 -10z"/>
<path d="M847 711 c3 -11 11 -26 19 -32 23 -19 18 15 -5 35 -19 17 -19 17 -14
-3z"/>
<path d="M890 718 c0 -9 5 -20 10 -23 13 -8 13 5 0 25 -8 13 -10 13 -10 -2z"/>
<path d="M296 702 c-3 -5 1 -9 9 -9 8 0 12 4 9 9 -3 4 -7 8 -9 8 -2 0 -6 -4
-9 -8z"/>
<path d="M240 679 c0 -5 5 -7 10 -4 6 3 10 8 10 11 0 2 -4 4 -10 4 -5 0 -10
-5 -10 -11z"/>
<path d="M790 674 c0 -7 -3 -21 -7 -31 -6 -16 -5 -16 8 -3 8 8 20 23 27 32 12
15 11 17 -7 15 -12 -1 -21 -7 -21 -13z"/>
<path d="M844 665 c3 -9 6 -20 6 -24 0 -4 7 -8 15 -8 22 0 18 20 -6 36 -19 11
-21 11 -15 -4z"/>
<path d="M890 668 c0 -9 5 -20 10 -23 13 -8 13 5 0 25 -8 13 -10 13 -10 -2z"/>
<path d="M829 610 c-3 -14 -9 -24 -15 -23 -7 1 -10 -12 -8 -32 1 -19 -2 -35
-7 -35 -5 0 -9 6 -10 13 0 6 -4 3 -8 -8 -5 -11 -5 -22 -1 -25 13 -9 32 -79 24
-92 -4 -7 3 -4 15 6 22 20 22 20 28 -2 5 -22 7 -22 24 -6 22 20 26 42 4 24
-12 -10 -15 -10 -15 0 0 8 -8 10 -21 7 -18 -5 -20 -2 -16 19 3 18 1 24 -9 20
-9 -4 -14 2 -14 15 0 15 5 19 15 15 11 -4 15 2 15 20 0 14 -4 22 -10 19 -12
-8 -13 5 -1 23 6 10 10 8 16 -10 11 -36 18 3 7 44 -9 31 -9 31 -13 8z"/>
<path d="M892 610 c0 -14 2 -19 5 -12 2 6 2 18 0 25 -3 6 -5 1 -5 -13z"/>
<path d="M850 605 c0 -8 4 -15 10 -15 5 0 7 7 4 15 -4 8 -8 15 -10 15 -2 0 -4
-7 -4 -15z"/>
<path d="M961 584 c0 -11 3 -14 6 -6 3 7 2 16 -1 19 -3 4 -6 -2 -5 -13z"/>
<path d="M870 565 c0 -8 4 -15 10 -15 5 0 7 7 4 15 -4 8 -8 15 -10 15 -2 0 -4
-7 -4 -15z"/>
<path d="M931 572 c0 -7 -5 -10 -11 -7 -15 9 -12 -7 5 -29 19 -25 23 -19 14
19 -4 17 -7 24 -8 17z"/>
<path d="M961 538 c-1 -23 -19 -32 -36 -18 -10 8 -15 8 -20 0 -4 -6 1 -18 11
-25 15 -12 16 -15 4 -16 -8 -1 -20 -1 -26 0 -7 1 -15 -6 -18 -15 -5 -13 -2
-15 14 -11 20 5 25 -9 21 -53 -2 -12 0 -13 7 -1 5 7 7 21 5 31 -4 14 3 20 29
25 74 15 75 15 46 39 -14 11 -28 30 -31 41 -4 15 -5 16 -6 3z m39 -58 c0 -5
-8 -10 -17 -10 -15 0 -16 2 -3 10 19 12 20 12 20 0z"/>
<path d="M877 525 c-4 -11 -10 -27 -13 -35 -5 -12 -3 -12 11 1 9 9 15 25 13
35 -4 18 -4 18 -11 -1z"/>
<path d="M231 514 c0 -11 3 -14 6 -6 3 7 2 16 -1 19 -3 4 -6 -2 -5 -13z"/>
<path d="M847 523 c-4 -3 -7 -13 -7 -22 1 -13 3 -13 11 2 11 19 8 33 -4 20z"/>
<path d="M400 449 c0 -4 11 -6 25 -6 13 0 22 3 20 8 -6 9 -45 8 -45 -2z"/>
<path d="M398 423 c-16 -4 -16 -6 1 -25 16 -16 23 -18 40 -9 12 7 21 19 21 29
0 13 -4 12 -20 -8 -10 -14 -22 -21 -27 -16 -4 5 -2 11 5 13 6 3 12 9 12 14 0
9 -4 10 -32 2z"/>
<path d="M542 416 c-54 -46 -62 -59 -56 -94 5 -25 3 -33 -5 -28 -6 4 -11 19
-11 32 0 16 -5 24 -12 21 -29 -10 8 -156 37 -150 5 1 16 20 24 42 9 22 25 51
36 63 31 35 65 94 65 112 0 16 -2 16 -22 2 -28 -20 -36 -20 -40 -2 -2 10 -6
11 -16 2z m11 -33 c-4 -10 -14 -23 -22 -30 -9 -6 -13 -14 -9 -18 3 -3 18 10
33 29 29 38 49 48 37 19 -14 -35 -37 -63 -52 -63 -13 0 -13 -1 0 -10 8 -5 10
-10 4 -10 -6 0 -16 -10 -23 -22 -10 -20 -11 -19 -6 15 5 29 3 37 -10 37 -8 0
-15 5 -15 10 0 6 4 10 8 10 5 0 14 11 20 25 13 29 45 36 35 8z m-44 -140 c0
-5 -4 -17 -9 -28 -8 -18 -9 -17 -9 8 -1 15 4 27 9 27 6 0 10 -3 9 -7z"/>
<path d="M240 409 c0 -5 5 -7 10 -4 6 3 10 8 10 11 0 2 -4 4 -10 4 -5 0 -10
-5 -10 -11z"/>
<path d="M464 391 c-16 -15 -36 -30 -44 -34 -13 -5 -13 -5 0 -6 17 -1 88 55
80 63 -3 3 -19 -8 -36 -23z"/>
<path d="M326 397 c3 -10 9 -15 12 -12 3 3 0 11 -7 18 -10 9 -11 8 -5 -6z"/>
<path d="M350 395 c0 -7 30 -13 34 -7 3 4 -4 9 -15 9 -10 1 -19 0 -19 -2z"/>
<path d="M720 383 c0 -10 4 -14 8 -8 4 6 11 13 16 18 5 4 2 7 -7 7 -10 0 -17
-8 -17 -17z"/>
<path d="M877 393 c-4 -3 -7 -16 -6 -27 0 -19 1 -19 10 3 10 24 8 36 -4 24z"/>
<path d="M800 377 c0 -9 5 -17 12 -19 6 -2 8 -10 4 -17 -5 -8 -12 -9 -20 -2
-9 7 -16 7 -23 0 -7 -7 -17 -8 -29 -1 -11 5 -28 6 -39 1 -11 -4 -15 -8 -9 -8
6 -1 9 -14 5 -33 -4 -31 -5 -32 -11 -8 -5 20 -13 25 -42 27 -20 2 -39 -1 -42
-5 -3 -5 5 -7 18 -5 26 5 44 -22 20 -31 -8 -3 -14 -1 -14 4 0 6 -8 10 -17 10
-24 0 -49 -17 -40 -27 5 -4 12 -2 16 6 6 9 22 -1 58 -38 28 -28 56 -51 63 -51
9 0 7 7 -6 22 -15 17 -16 20 -3 16 9 -4 20 2 27 13 14 21 3 25 -17 7 -11 -11
-11 -9 -2 9 6 12 14 23 18 25 5 3 2 3 -4 2 -18 -5 -16 7 5 22 10 8 12 13 5 14
-7 0 -13 5 -13 10 0 12 36 6 93 -16 48 -18 107 -19 107 -1 0 15 -40 56 -40 41
0 -5 -8 1 -18 12 -22 28 -62 41 -62 21z"/>
<path d="M673 365 c-9 -25 4 -29 17 -6 7 15 7 21 0 21 -6 0 -13 -7 -17 -15z"/>
<path d="M280 349 c0 -5 5 -7 10 -4 6 3 10 8 10 11 0 2 -4 4 -10 4 -5 0 -10
-5 -10 -11z"/>
<path d="M620 343 c0 -10 4 -14 8 -8 4 6 11 13 16 18 5 4 2 7 -7 7 -10 0 -17
-8 -17 -17z"/>
<path d="M380 339 c0 -5 5 -7 10 -4 6 3 10 8 10 11 0 2 -4 4 -10 4 -5 0 -10
-5 -10 -11z"/>
<path d="M380 310 c0 -5 5 -10 10 -10 6 0 10 5 10 10 0 6 -4 10 -10 10 -5 0
-10 -4 -10 -10z"/>
<path d="M760 299 c0 -5 5 -7 10 -4 6 3 10 8 10 11 0 2 -4 4 -10 4 -5 0 -10
-5 -10 -11z"/>
<path d="M540 270 c0 -5 5 -10 10 -10 6 0 10 5 10 10 0 6 -4 10 -10 10 -5 0
-10 -4 -10 -10z"/>
</g>
</svg>
