<?xml version="1.0" standalone="no"?>
<!DOCTYPE svg PUBLIC "-//W3C//DTD SVG 20010904//EN"
 "http://www.w3.org/TR/2001/REC-SVG-20010904/DTD/svg10.dtd">
<svg version="1.0" xmlns="http://www.w3.org/2000/svg"
 width="159.000000pt" height="122.000000pt" viewBox="0 0 159.000000 122.000000"
 preserveAspectRatio="xMidYMid meet">

<g transform="translate(0.000000,122.000000) scale(0.100000,-0.100000)"
fill="#000000" stroke="none">
<path d="M852 787 c-41 -8 -51 -13 -48 -26 3 -9 8 -29 11 -46 l5 -30 -11 30
c-6 17 -13 36 -15 44 -3 10 -13 6 -39 -13 -34 -26 -35 -26 -35 -6 0 20 -4 21
-97 18 l-97 -3 -38 -70 c-36 -67 -38 -74 -36 -150 3 -74 5 -80 26 -83 17 -3
22 2 22 18 0 33 44 70 82 70 44 0 75 -23 83 -60 l7 -30 73 0 73 0 7 30 c4 16
16 37 28 45 20 14 16 15 -56 15 l-77 0 1 83 1 82 16 -60 c22 -80 27 -85 72
-85 l38 0 -10 36 c-5 20 -7 38 -4 41 2 3 8 -11 11 -31 4 -20 11 -38 15 -41 4
-3 32 4 61 14 53 18 54 19 53 57 l-2 39 10 -32 c6 -18 14 -33 18 -33 5 0 97
62 129 86 2 2 -2 23 -9 47 -12 44 -13 45 -63 51 -29 3 -66 6 -84 6 -31 0 -31
-1 -22 -32 13 -48 9 -60 -5 -13 -14 45 -20 47 -94 32z m-162 -117 l0 -60 -100
0 c-55 0 -100 2 -100 5 0 2 12 29 27 60 l27 55 73 0 73 0 0 -60z m277 18 c-3
-8 -6 -5 -6 6 -1 11 2 17 5 13 3 -3 4 -12 1 -19z m-140 -30 c-3 -8 -6 -5 -6 6
-1 11 2 17 5 13 3 -3 4 -12 1 -19z"/>
<path d="M1144 741 c5 -51 -13 -94 -47 -113 -12 -6 -58 -24 -102 -39 l-80 -28
83 0 c61 -1 87 3 100 15 9 8 27 23 40 32 30 23 40 95 18 142 l-16 35 4 -44z"/>
<path d="M965 515 c14 -13 25 -34 25 -45 0 -19 5 -21 43 -18 42 3 42 3 45 46
l3 42 -70 0 -70 0 24 -25z"/>
<path d="M535 505 c-39 -39 -32 -86 17 -111 24 -12 36 -13 58 -4 27 11 50 46
50 76 0 24 -47 64 -75 64 -14 0 -37 -11 -50 -25z m82 -31 c8 -22 -10 -49 -32
-49 -10 0 -22 7 -28 16 -15 24 -1 49 28 49 15 0 28 -7 32 -16z"/>
<path d="M855 505 c-28 -27 -30 -42 -14 -79 33 -71 139 -44 139 35 0 28 -44
69 -75 69 -14 0 -37 -11 -50 -25z m82 -31 c8 -22 -10 -49 -32 -49 -10 0 -22 7
-28 16 -15 24 -1 49 28 49 15 0 28 -7 32 -16z"/>
</g>
</svg>
