<?xml version="1.0" standalone="no"?>
<!DOCTYPE svg PUBLIC "-//W3C//DTD SVG 20010904//EN"
 "http://www.w3.org/TR/2001/REC-SVG-20010904/DTD/svg10.dtd">
<svg version="1.0" xmlns="http://www.w3.org/2000/svg"
 width="122.000000pt" height="122.000000pt" viewBox="0 0 122.000000 122.000000"
 preserveAspectRatio="xMidYMid meet">

<g transform="translate(0.000000,122.000000) scale(0.100000,-0.100000)"
fill="#000000" stroke="none">
<path d="M600 965 c-8 -9 -11 -31 -8 -59 7 -63 -3 -76 -62 -76 l-49 0 -12 -42
c-6 -24 -14 -53 -18 -65 -4 -14 -60 -59 -151 -121 -139 -94 -145 -100 -148
-135 l-3 -37 466 0 466 0 -3 37 c-3 34 -10 41 -153 138 l-149 103 -14 60 -13
61 -57 3 -57 3 0 62 c0 68 -13 94 -35 68z m-165 -325 c-40 -41 -56 -50 -84
-50 l-34 0 69 49 c89 64 112 64 49 1z m109 35 c-4 -8 -17 -15 -31 -15 -22 0
-24 2 -13 15 7 8 21 15 31 15 12 0 16 -5 13 -15z m64 -37 l-3 -53 -42 -3 c-24
-2 -43 0 -43 3 0 3 11 28 25 55 18 35 31 50 46 50 18 0 20 -5 17 -52z m60 35
c2 -8 -6 -13 -22 -13 -17 0 -26 5 -26 16 0 19 41 16 48 -3z m94 -30 c26 -26
48 -51 48 -56 0 -4 -17 -7 -37 -5 -34 3 -41 8 -66 56 -25 46 -26 52 -10 52 9
0 39 -21 65 -47z m28 32 c10 -12 10 -15 -3 -15 -8 0 -20 7 -27 15 -10 12 -10
15 3 15 8 0 20 -7 27 -15z m-270 -35 c0 -5 -14 -39 -32 -75 l-32 -65 -65 0
-65 0 74 75 c49 50 82 75 97 75 13 0 23 -4 23 -10z m195 -60 c19 -38 35 -72
35 -75 0 -3 -29 -5 -65 -5 l-65 0 0 68 c0 76 3 82 37 82 18 0 30 -14 58 -70z
m219 -2 l110 -73 -59 -3 -58 -3 -69 68 c-37 37 -68 71 -68 75 0 21 44 1 144
-64z m-605 -44 c-33 -33 -39 -35 -89 -32 l-54 3 49 32 c35 23 62 33 90 33 l40
0 -36 -36z m281 1 l0 -35 -65 0 c-36 0 -65 2 -65 5 0 4 7 19 15 35 14 27 20
30 65 30 l50 0 0 -35z m260 0 l34 -35 -65 0 c-65 0 -65 0 -82 35 l-17 35 48 0
c42 0 53 -5 82 -35z"/>
</g>
</svg>
