<?xml version="1.0" standalone="no"?>
<!DOCTYPE svg PUBLIC "-//W3C//DTD SVG 20010904//EN"
 "http://www.w3.org/TR/2001/REC-SVG-20010904/DTD/svg10.dtd">
<svg version="1.0" xmlns="http://www.w3.org/2000/svg"
 width="123.000000pt" height="123.000000pt" viewBox="0 0 123.000000 123.000000"
 preserveAspectRatio="xMidYMid meet">

<g transform="translate(0.000000,123.000000) scale(0.100000,-0.100000)"
fill="#000000" stroke="none">
<path d="M851 811 c-62 -70 -70 -88 -49 -109 6 -6 8 -15 5 -19 -4 -4 -27 12
-50 35 -24 23 -48 42 -53 42 -23 0 -42 -39 -67 -136 -32 -118 -34 -152 -10
-161 16 -6 219 41 256 59 27 14 20 51 -18 88 l-35 34 -32 -29 c-18 -17 -11 -6
17 23 46 48 48 54 36 74 -12 20 -9 25 43 70 39 35 56 57 56 74 0 43 -35 28
-99 -45z"/>
<path d="M370 750 l0 -60 110 0 110 0 0 60 0 60 -110 0 -110 0 0 -60z"/>
<path d="M620 749 c0 -44 3 -60 13 -57 6 3 14 13 16 24 9 52 59 69 97 33 l22
-21 31 33 c17 19 31 37 31 42 0 4 -47 7 -105 7 l-105 0 0 -61z"/>
<path d="M240 600 l0 -60 115 0 115 0 0 60 0 60 -115 0 -115 0 0 -60z"/>
<path d="M490 600 l0 -60 55 0 54 0 16 52 c8 28 15 55 15 60 0 4 -31 8 -70 8
l-70 0 0 -60z"/>
<path d="M850 654 c0 -4 16 -24 35 -45 19 -22 35 -46 35 -54 0 -10 10 -15 30
-15 l30 0 0 60 0 60 -65 0 c-36 0 -65 -3 -65 -6z"/>
<path d="M370 450 l0 -60 110 0 110 0 0 60 0 60 -110 0 -110 0 0 -60z"/>
<path d="M740 469 c-36 -11 -77 -20 -92 -21 -24 -1 -28 -5 -28 -30 l0 -28 115
0 115 0 0 50 c0 59 -4 60 -110 29z"/>
</g>
</svg>
