<svg viewBox="0 -46 512 512" xmlns="http://www.w3.org/2000/svg"><path d="m0 0h151v60h-151zm0 0"/><path d="m181 0h150v60h-150zm0 0"/><path d="m361 0h151v60h-151zm0 0"/><path d="m91 90h150v60h-150zm0 0"/><path d="m271 90h150v60h-150zm0 0"/><path d="m0 180h151v60h-151zm0 0"/><path d="m181 180h150v60h-150zm0 0"/><path d="m361 180h151v60h-151zm0 0"/><path d="m91 270h150v60h-150zm0 0"/><path d="m271 270h150v60h-150zm0 0"/><path d="m0 360h151v60h-151zm0 0"/><path d="m181 360h150v60h-150zm0 0"/><path d="m361 360h151v60h-151zm0 0"/></svg>