<svg height="512pt" viewBox="0 -40 512 512" width="512pt" xmlns="http://www.w3.org/2000/svg"><path d="m391.785156 0-40.6875 40.6875c7.914063 6.164062 15.214844 13.078125 21.796875 20.632812l31.320313-31.320312h107.785156v-30zm0 0"/><path d="m422.632812 380.417969c-6.960937 7.230469-14.617187 13.789062-22.859374 19.566406l31.011718 31.015625h81.214844v-30h-68.785156zm0 0"/><path d="m89.367188 380.417969-20.582032 20.582031h-68.785156v30h81.214844l31.011718-31.015625c-8.242187-5.777344-15.898437-12.332031-22.859374-19.566406zm0 0"/><path d="m256 128.089844c17.101562-6.511719 35.640625-10.089844 55-10.089844 23.722656 0 46.214844 5.363281 66.335938 14.933594-13.496094-54.449219-62.773438-94.933594-121.335938-94.933594s-107.839844 40.484375-121.335938 94.933594c20.121094-9.570313 42.613282-14.933594 66.335938-14.933594 19.359375 0 37.898438 3.578125 55 10.089844zm0 0"/><path d="m217.910156 149.148438c-5.53125-.75-11.175781-1.148438-16.910156-1.148438-25.847656 0-49.886719 7.886719-69.839844 21.375 1.386719 27.425781 11.652344 52.542969 27.972656 72.535156 7.703126-37.671875 29.113282-70.410156 58.777344-92.761718zm0 0"/><path d="m256 318c-23.722656 0-46.214844-5.363281-66.335938-14.933594 8.953126 36.109375 33.636719 66.074219 66.335938 82.164063 32.699219-16.089844 57.386719-46.054688 66.335938-82.164063-20.121094 9.570313-42.613282 14.933594-66.335938 14.933594zm0 0"/><path d="m256 160.769531c-39.621094 19.5-67.492188 59.367188-69.839844 105.855469 19.953125 13.488281 43.992188 21.375 69.839844 21.375s49.886719-7.886719 69.839844-21.375c-2.347656-46.488281-30.21875-86.355469-69.839844-105.855469zm0 0"/><path d="m156.238281 281.523438c-26.191406-22.078126-44.996093-52.652344-52.105469-87.433594-17.574218 21.53125-28.132812 49.011718-28.132812 78.910156 0 68.925781 56.074219 125 125 125 5.734375 0 11.378906-.394531 16.910156-1.148438-35.445312-26.707031-59.109375-68.253906-61.671875-115.328124zm0 0"/><path d="m380.839844 169.375c-19.953125-13.488281-43.992188-21.375-69.839844-21.375-5.734375 0-11.378906.394531-16.910156 1.148438 29.664062 22.351562 51.074218 55.089843 58.777344 92.761718 16.320312-19.992187 26.585937-45.109375 27.972656-72.535156zm0 0"/><path d="m407.867188 194.089844c-7.109376 34.78125-25.914063 65.355468-52.105469 87.433594-2.5625 47.074218-26.226563 88.617187-61.671875 115.328124 5.53125.75 11.175781 1.148438 16.910156 1.148438 68.925781 0 125-56.074219 125-125 0-29.898438-10.558594-57.378906-28.132812-78.910156zm0 0"/></svg>