<svg id="Capa_1" enable-background="new 0 0 609.619 609.619" height="512" viewBox="0 0 609.619 609.619" width="512" xmlns="http://www.w3.org/2000/svg"><g><g id="Page-1_36_"><g id="_x30_37---Concrete-Truck"><path id="Path_284_" clip-rule="evenodd" d="m108.86 331.089v44.339h206.835v-29.392c-24.274 4.418-48.895 6.655-73.568 6.684-45.291-.056-90.282-7.359-133.267-21.631z" fill-rule="evenodd"/><path id="Path_283_" clip-rule="evenodd" d="m345.534 339.504c-2.667.697-5.378 1.187-8.067 1.829v34.095h43.544v-124.95l-11.975 63.542c-2.277 12.309-11.416 22.219-23.502 25.484z" fill-rule="evenodd"/><path id="Shape_58_" d="m9.406 256.225c95.905 67.874 216.619 90.604 330.642 62.257 3.954-1.135 6.913-4.428 7.62-8.48l31.025-165.022c.814-4.039-.76-8.187-4.05-10.668-68.533-48.524-150.48-74.493-234.452-74.297-32.4-.07-64.678 3.976-96.059 12.04-3.958 1.128-6.92 4.424-7.62 8.48l-31.134 165.011c-.821 4.038.745 8.189 4.028 10.679zm45.862-157.847c.813-4.303 4.124-7.699 8.404-8.622 14.301-3.087 28.777-5.298 43.348-6.619 5.988-.547 11.286 3.864 11.833 9.852s-3.864 11.286-9.852 11.833c-11.332 1.089-22.632 2.634-33.747 4.768l-5.508 29.207c-.646 3.892-3.347 7.13-7.061 8.463-3.713 1.333-7.857.553-10.832-2.04s-4.313-6.591-3.499-10.452z"/><g clip-rule="evenodd" fill-rule="evenodd"><path id="Path_282_" d="m468.1 201.251v54.43h112.301l-29.698-54.43z"/><path id="Path_281_" d="m18.071 331.884h69.018v-8.709c-24.633-9.683-48.278-21.713-70.607-35.924l-8.862 30.666c-.972 3.294-.333 6.853 1.725 9.603s5.292 4.367 8.726 4.364z"/><circle id="Oval_10_" cx="108.86" cy="495.174" r="10.886"/><path id="Path_280_" d="m609.619 495.174v-21.772h-25.038c2.143 7.06 3.244 14.394 3.266 21.772z"/><circle id="Oval_9_" cx="283.037" cy="495.174" r="10.886"/></g><path id="Shape_57_" d="m108.86 549.604c30.061 0 54.43-24.369 54.43-54.43s-24.369-54.43-54.43-54.43-54.43 24.369-54.43 54.43c.036 30.046 24.384 54.394 54.43 54.43zm0-87.088c18.037 0 32.658 14.622 32.658 32.658 0 18.037-14.622 32.658-32.658 32.658s-32.658-14.622-32.658-32.658 14.622-32.658 32.658-32.658z"/><path id="Path_279_" clip-rule="evenodd" d="m108.86 418.972c24.903.016 48.224 12.213 62.442 32.658h49.292c14.209-20.456 37.536-32.655 62.442-32.655s48.234 12.199 62.442 32.655h35.532v-54.43h-324.829c-3.901-.012-7.51 2.065-9.46 5.443l-27.964 48.987h27.661c14.218-20.445 37.539-32.642 62.442-32.658z" fill-rule="evenodd"/><path id="Path_278_" clip-rule="evenodd" d="m185.063 495.174h21.772c.022-7.378 1.122-14.713 3.266-21.772h-28.304c2.143 7.06 3.244 14.395 3.266 21.772z" fill-rule="evenodd"/><path id="Shape_56_" d="m283.037 440.744c-30.061 0-54.43 24.369-54.43 54.43s24.369 54.43 54.43 54.43 54.43-24.369 54.43-54.43c-.035-30.046-24.384-54.394-54.43-54.43zm0 87.088c-18.037 0-32.658-14.622-32.658-32.658 0-18.037 14.622-32.658 32.658-32.658s32.658 14.622 32.658 32.658c0 18.037-14.621 32.658-32.658 32.658z"/><path id="Shape_55_" d="m587.847 418.972h-21.772c-6.012 0-10.886-4.874-10.886-10.886s4.874-10.886 10.886-10.886h21.772v-21.772h-43.544c-12.024 0-21.772-9.748-21.772-21.772v-21.772c0-12.024 9.748-21.772 21.772-21.772h43.544v-32.658h-119.747c-12.024 0-21.772-9.748-21.772-21.772v-54.43c0-12.024 9.748-21.772 21.772-21.772h70.759l-8.785-16.1c-1.912-3.504-5.588-5.68-9.58-5.672h-106.824c-6.012 0-10.886 4.874-10.886 10.886v283.036h46.418c14.209-20.456 37.536-32.655 62.442-32.655s48.234 12.199 62.442 32.655h13.76v-32.658zm-108.861-87.088h-21.772c-6.012 0-10.886-4.874-10.886-10.886s4.874-10.886 10.886-10.886h21.772c6.012 0 10.886 4.874 10.886 10.886s-4.874 10.886-10.886 10.886z"/><path id="Shape_54_" d="m566.075 495.174c0-30.061-24.369-54.43-54.43-54.43s-54.43 24.369-54.43 54.43 24.369 54.43 54.43 54.43c30.045-.036 54.394-24.384 54.43-54.43zm-54.431 32.658c-18.037 0-32.658-14.622-32.658-32.658 0-18.037 14.622-32.658 32.658-32.658 18.037 0 32.658 14.622 32.658 32.658 0 18.037-14.621 32.658-32.658 32.658z"/><path id="Rectangle_50_" clip-rule="evenodd" d="m544.302 331.884h43.544v21.772h-43.544z" fill-rule="evenodd"/><path id="Path_277_" clip-rule="evenodd" d="m35.924 473.402h-35.924v21.772h32.658c.022-7.377 1.123-14.712 3.266-21.772z" fill-rule="evenodd"/><path id="Path_276_" clip-rule="evenodd" d="m359.24 495.174h76.202c.022-7.378 1.122-14.713 3.266-21.772h-82.625c2.106 7.065 3.17 14.4 3.157 21.772z" fill-rule="evenodd"/><circle id="Oval_8_" clip-rule="evenodd" cx="511.644" cy="495.174" fill-rule="evenodd" r="10.886"/></g></g></g></svg>